HIERARCHY
ROOT Hips
{
	OFFSET 0.00 0.00 0.00
	CHANNELS 6 Xposition Yposition Zposition Xrotation Yrotation Zrotation
	JOINT RightUpLeg
	{
		OFFSET -3.76699 0.00000 0.00000
		CHANNELS 3 Xrotation Yrotation Zrotation
		JOINT RightLeg
		{
			OFFSET 0.00000 -18.01768 0.00000
			CHANNELS 3 Xrotation Yrotation Zrotation
			JOINT RightFoot
			{
				OFFSET 0.00000 -16.88108 0.00000
				CHANNELS 3 Xrotation Yrotation Zrotation
				JOINT RightToeBase
				{
					OFFSET 0.00000 -1.49359 5.57418
					CHANNELS 3 Xrotation Yrotation Zrotation
					End Site
					{
						OFFSET 0.00000 0.00000 2.95275
					}
				}
			}
		}
	}
	JOINT LeftUpLeg
	{
		OFFSET 3.76699 0.00000 0.00000
		CHANNELS 3 Xrotation Yrotation Zrotation
		JOINT LeftLeg
		{
			OFFSET 0.00000 -18.01768 0.00000
			CHANNELS 3 Xrotation Yrotation Zrotation
			JOINT LeftFoot
			{
				OFFSET 0.00000 -16.88108 0.00000
				CHANNELS 3 Xrotation Yrotation Zrotation
				JOINT LeftToeBase
				{
					OFFSET 0.00000 -1.49359 5.57418
					CHANNELS 3 Xrotation Yrotation Zrotation
					End Site
					{
						OFFSET 0.00000 0.00000 2.95275
					}
				}
			}
		}
	}
	JOINT Spine
	{
		OFFSET 0.00000 7.77970 0.00000
		CHANNELS 3 Xrotation Yrotation Zrotation
		JOINT RightShoulder
		{
			OFFSET 0.00000 10.94176 0.00000
			CHANNELS 3 Xrotation Yrotation Zrotation
			JOINT RightArm
			{
				OFFSET -7.70894 0.00000 0.00000
				CHANNELS 3 Xrotation Yrotation Zrotation
				JOINT RightForeArm
				{
					OFFSET -11.52135 0.00000 0.00000
					CHANNELS 3 Yrotation Zrotation Xrotation
					JOINT RightHand
					{
						OFFSET -10.17590 0.00000 0.00000
						CHANNELS 3 Xrotation Yrotation Zrotation
						End Site
						{
							OFFSET -3.93700 0.00000 0.00000
						}
						JOINT RightHandThumb1
						{
							OFFSET 0.00000 0.00000 0.00000
							CHANNELS 3 Xrotation Zrotation Yrotation
							End Site
							{
								OFFSET 0.00000 0.00000 3.93700
							}
						}
					}
				}
			}
		}
		JOINT LeftShoulder
		{
			OFFSET 0.00000 10.94176 0.00000
			CHANNELS 3 Xrotation Yrotation Zrotation
			JOINT LeftArm
			{
				OFFSET 7.70894 0.00000 0.00000
				CHANNELS 3 Xrotation Yrotation Zrotation
				JOINT LeftForeArm
				{
					OFFSET 11.52135 0.00000 0.00000
					CHANNELS 3 Yrotation Zrotation Xrotation
					JOINT LeftHand
					{
						OFFSET 10.17590 0.00000 0.00000
						CHANNELS 3 Xrotation Yrotation Zrotation
						End Site
						{
							OFFSET 3.93700 0.00000 0.00000
						}
						JOINT LeftHandThumb1
						{
							OFFSET 0.00000 0.00000 0.00000
							CHANNELS 3 Xrotation Zrotation Yrotation
							End Site
							{
								OFFSET 0.00000 0.00000 3.93700
							}
						}
					}
				}
			}
		}
		JOINT Head
		{
			OFFSET 0.00000 16.64604 0.00000
			CHANNELS 3 Xrotation Yrotation Zrotation
			End Site
			{
				OFFSET 0.00000 4.52755 0.00000
			}
		}
	}
}
MOTION
Frames: 11
Frame Time: 0.008333
 4.6310 38.1851 -0.3848 -17.9365 25.6555 37.9059 1.4421 -19.9713 -26.4851 21.4348 -0.0000 0.0000 -24.6923 -34.1810 -4.6813 6.3973 0.0000 -0.0000 -58.0203 11.6526 32.7514 134.7703 -0.0000 0.0000 31.6465 4.7753 -24.4803 0.4314 -0.0000 -0.0000 21.0920 -15.5820 -12.9523 14.0920 -4.9441 -17.8670 -28.2125 -15.1990 41.2865 108.2476 0.0000 -8.7247 4.9401 4.8693 -45.5186 32.8623 0.0000 -24.3270 38.4337 18.1110 -8.7186 -28.4352 -24.7427 -66.2125 -101.3409 -0.0000 34.6139 1.8469 14.2968 -7.4393 33.1476 -0.0000 26.2537 3.5011 -11.8556 -9.7647
 4.6557 38.1790 -0.3908 -17.9169 25.5339 37.8938 1.4174 -19.8260 -26.5416 21.5757 0.0000 -0.0000 -24.7312 -34.2000 -4.8086 6.3103 -0.0000 0.0000 -58.3227 11.8474 32.5558 134.9405 -0.0000 0.0000 31.6909 4.9167 -24.9532 1.0959 0.0000 -0.0000 21.1662 -15.4323 -12.7442 14.0358 -5.0048 -17.9687 -28.3649 -15.1854 41.1275 108.3155 0.0000 -8.8126 4.9356 4.8745 -45.4623 32.8623 0.0000 -24.3270 38.4940 18.0709 -8.7673 -28.5942 -24.9466 -66.3982 -101.4815 -0.0000 34.6290 1.8515 14.4670 -7.3727 33.1476 -0.0000 26.2537 3.3509 -11.8744 -9.9960
 4.6786 38.1709 -0.3954 -17.8881 25.4172 37.8478 1.3932 -19.6547 -26.5498 21.7379 -0.0000 0.0000 -24.7794 -34.2401 -5.0097 6.2044 0.0000 -0.0000 -58.6379 11.9602 32.3992 135.0106 -0.0000 0.0000 31.6458 5.0858 -25.3795 1.4408 -0.0000 -0.0000 21.2411 -15.3224 -12.5013 13.9018 -5.0156 -18.0732 -28.4160 -15.1232 40.9150 108.4001 0.0000 -8.9293 4.9404 4.8866 -45.4192 32.8623 0.0000 -24.3270 38.4358 18.0894 -8.8272 -28.6380 -25.1612 -66.5434 -101.6061 -0.0000 34.6424 1.8288 14.2723 -7.3796 33.1476 -0.0000 26.2537 3.1572 -11.8281 -10.2428
 4.6994 38.1620 -0.3998 -17.8889 25.3042 37.8047 1.4333 -19.4508 -26.5150 21.8832 -0.0000 -0.0000 -24.8450 -34.3421 -5.2362 6.1124 0.0000 0.0000 -58.9253 11.9826 32.2484 134.9666 -0.0000 0.0000 31.5553 5.2343 -25.9439 1.7538 -0.0000 0.0000 21.3456 -15.2529 -12.2552 13.8264 -5.0136 -18.2076 -28.5221 -15.1068 40.7600 108.4760 0.0000 -8.9933 4.9269 4.8859 -45.3452 32.8623 0.0000 -24.3270 38.4264 18.1165 -8.8735 -28.7418 -25.3654 -66.7108 -101.7623 -0.0000 34.5790 1.8364 14.1376 -7.4784 33.1476 -0.0000 26.2537 2.9679 -11.7562 -10.4579
 4.7159 38.1514 -0.4026 -17.9003 25.1820 37.7378 1.5194 -19.2249 -26.4323 22.0127 -0.0000 -0.0000 -24.8761 -34.4585 -5.2710 5.8793 0.0000 0.0000 -59.2078 11.9248 32.1267 134.7976 0.0000 -0.0000 31.4296 5.3915 -26.6149 1.6997 0.0000 -0.0000 21.4851 -15.1446 -12.0020 13.7166 -5.0590 -18.3065 -28.6180 -15.0332 40.6114 108.5198 0.0000 -9.0713 4.9238 4.8968 -45.2630 32.8623 0.0000 -24.3270 38.4363 18.1498 -8.8817 -28.9350 -25.5959 -66.9067 -101.8785 -0.0000 34.5301 1.9081 13.9712 -7.8564 33.1476 -0.0000 26.2537 2.7518 -11.7047 -10.6185
 4.7326 38.1434 -0.4036 -17.9385 25.0473 37.7140 1.6319 -19.0239 -26.3794 22.1128 0.0000 -0.0000 -24.9539 -34.5538 -5.5931 5.8977 0.0000 0.0000 -59.4461 11.8402 31.9953 134.4963 -0.0000 0.0000 31.2388 5.5331 -27.2513 1.9109 -0.0000 -0.0000 21.6494 -15.0860 -11.7940 13.6598 -5.0770 -18.4021 -28.7536 -14.9881 40.4602 108.5904 0.0000 -9.1402 4.9015 4.8850 -45.2013 32.8623 0.0000 -24.3270 38.4401 18.1943 -8.9039 -29.0884 -25.8705 -67.0370 -101.9866 -0.0000 34.4912 1.9070 13.9014 -7.8901 33.1476 -0.0000 26.2537 2.5491 -11.6304 -10.7649
 4.7480 38.1369 -0.4037 -17.9842 24.9084 37.7186 1.7466 -18.8178 -26.3503 22.2203 0.0000 0.0000 -25.0618 -34.6257 -5.8903 5.9552 0.0000 0.0000 -59.6603 11.7365 31.8702 134.0503 -0.0000 -0.0000 31.0367 5.6527 -27.9551 1.7986 -0.0000 0.0000 21.8070 -15.0524 -11.6310 13.5676 -5.0593 -18.5055 -28.8232 -14.9453 40.3229 108.6711 0.0000 -9.2189 4.8805 4.8817 -45.0968 32.8623 0.0000 -24.3270 38.4360 18.2293 -8.9139 -29.2288 -26.1837 -67.1323 -102.0880 -0.0000 34.6170 1.8853 13.9729 -7.7629 33.1476 -0.0000 26.2537 2.3540 -11.5737 -10.8748
 4.7626 38.1309 -0.4047 -18.0331 24.7748 37.7532 1.8434 -18.6017 -26.3475 22.3516 0.0000 0.0000 -25.2440 -34.7312 -6.4178 6.2346 0.0000 -0.0000 -59.9160 11.6414 31.7490 133.4691 0.0000 -0.0000 30.8389 5.9104 -28.6916 1.8345 0.0000 -0.0000 21.9631 -15.0421 -11.5076 13.3914 -5.0160 -18.6412 -28.7702 -14.9116 40.2317 108.7672 0.0000 -9.2775 4.8739 4.8844 -45.0420 32.8623 0.0000 -24.3270 38.3994 18.2654 -8.9038 -29.3361 -26.5016 -67.1820 -102.2054 -0.0000 34.4775 1.8648 13.9794 -7.6761 33.1476 -0.0000 26.2537 2.1835 -11.4531 -10.9934
 4.7763 38.1260 -0.4089 -18.0417 24.6466 37.8407 1.8109 -18.3659 -26.4473 22.5928 -0.0000 -0.0000 -25.4000 -34.8270 -6.7054 6.2227 -0.0000 0.0000 -60.1923 11.5678 31.6255 132.7270 -0.0000 0.0000 30.7426 6.0538 -29.3058 1.5926 0.0000 -0.0000 22.0659 -15.0279 -11.5081 13.3651 -5.0490 -18.6859 -28.8824 -14.8215 40.1098 108.8606 0.0000 -9.3546 4.8703 4.8806 -45.0430 32.8623 0.0000 -24.3270 38.4040 18.3131 -8.8694 -29.5178 -26.8180 -67.2063 -102.3047 -0.0000 34.4032 1.8746 13.8341 -7.7942 33.1476 -0.0000 26.2537 2.0165 -11.4314 -11.0271
 4.7832 38.1207 -0.4116 -18.0845 24.5368 37.8724 1.9108 -18.1610 -26.4295 22.6913 -0.0000 -0.0000 -25.5745 -34.9959 -6.8592 6.5196 -0.0000 -0.0000 -60.4941 11.4057 31.5440 131.8932 -0.0000 0.0000 30.4955 6.3978 -29.7043 1.7194 -0.0000 0.0000 22.2167 -15.0651 -11.4093 13.3793 -5.0606 -18.7452 -29.0501 -14.7204 39.9668 108.9833 0.0000 -9.4571 4.8147 4.8238 -45.0475 32.8623 0.0000 -24.3270 38.3554 18.3327 -8.8602 -29.6355 -27.1124 -67.1863 -102.4014 -0.0000 34.4957 1.8681 13.6864 -7.8488 33.1476 -0.0000 26.2537 1.8303 -11.3437 -11.1115
 4.7888 38.1133 -0.4161 -18.0944 24.4483 37.9148 1.9323 -17.9625 -26.4465 22.8323 0.0000 -0.0000 -25.6795 -35.0457 -7.0824 6.5147 0.0000 -0.0000 -60.8889 11.2545 31.4805 130.9182 -0.0000 0.0000 30.3941 6.8570 -29.9915 1.6426 -0.0000 0.0000 22.3099 -15.1184 -11.3596 13.3570 -5.0644 -18.8190 -29.1448 -14.6257 39.8488 109.1138 0.0000 -9.5672 4.7601 4.7885 -44.9289 32.8623 0.0000 -24.3270 38.3717 18.3562 -8.8466 -29.8341 -27.4520 -67.1707 -102.4866 -0.0000 34.6476 1.8838 13.7452 -7.8809 33.1476 -0.0000 26.2537 1.6848 -11.2489 -11.1912
